<svg width="448" height="512" viewBox="0 0 448 512" fill="none" xmlns="http://www.w3.org/2000/svg">
<path fill-rule="evenodd" clip-rule="evenodd" d="M135.001 0.687C108.438 5.088 84.7458 29.487 80.7038 56.604L79.6448 63.708L66.0728 64.332C58.6078 64.675 50.0458 65.624 47.0458 66.441C24.8168 72.495 6.42078 92.364 1.48778 115.646C0.251776 121.478 0.0327749 147.121 0.0177749 287.614C0.00777491 385.693 0.379775 454.725 0.933775 457.647C5.29678 480.654 23.8608 501.563 46.7318 509.231L53.5008 511.5H184.001H314.501L321.27 509.231C345.171 501.218 363.7 479.539 367.302 455.372L368.364 448.245L381.933 447.735C392.192 447.35 397.039 446.7 401.81 445.069C424.297 437.385 442.749 416.42 447.068 393.647C447.615 390.76 448.001 334.942 448.001 258.585V128.442L391.821 64.221L335.641 0L236.571 0.136C182.082 0.211 136.376 0.459 135.001 0.687ZM362.047 63.5C374.895 78.9 392.34 99.739 400.814 109.809L416.22 128.117L388.36 127.809L360.501 127.5L354.645 124.533C348.106 121.219 342.25 115.171 338.798 108.162C336.553 103.605 336.494 102.704 336.199 68C335.941 37.593 336.098 32.715 337.293 34C338.06 34.825 349.199 48.1 362.047 63.5ZM80.0008 242.364C80.0008 328.759 80.3828 390.743 80.9338 393.647C85.2428 416.37 103.242 436.873 126.192 445.203L132.501 447.493L234.387 447.774L336.273 448.055L335.662 453.217C334.327 464.489 325.81 475.154 315.689 478.228C312.395 479.229 284.399 479.5 184.501 479.5H57.5008L51.8528 476.852C44.6608 473.48 38.5208 467.34 35.1488 460.148L32.5008 454.5V287C32.5008 100.387 31.8768 116.57 39.3918 108.252C45.5338 101.454 60.4108 96.337 74.7508 96.09L80.0008 96V242.364ZM344 226.556C349.184 229.601 352.18 235.36 351.682 241.324C351.234 246.704 348.966 250.378 344.011 253.75L340.705 256H264.001H187.297L183.991 253.75C176.516 248.663 174.093 240.659 177.818 233.359C178.938 231.163 180.558 228.782 181.418 228.069C186.17 224.125 187.736 224.054 265.501 224.281C339.175 224.496 340.563 224.536 344 226.556ZM343.035 306.25C354.09 311.83 354.9 325.76 344.616 333.438C341.882 335.479 341.072 335.5 264.001 335.5C186.93 335.5 186.12 335.479 183.386 333.438C178.856 330.056 176.746 326.438 176.32 321.324C175.773 314.769 178.904 309.31 184.967 306.25L189.425 304H264.001H338.577L343.035 306.25Z" fill="black"/>
</svg>
