<svg width="16" height="11" viewBox="0 0 16 11" fill="none" xmlns="http://www.w3.org/2000/svg">
<path fill-rule="evenodd" clip-rule="evenodd" d="M10.1095 0.0677454C10.0408 0.130351 6.07525 8.19088 5.87946 8.66593C5.56756 9.4227 6.0311 10.2892 6.83068 10.4439C7.47265 10.5682 8.13217 10.1867 8.32071 9.58212C8.40649 9.30702 10.4645 0.329488 10.4641 0.231921C10.4637 0.120657 10.4411 0.0815675 10.3495 0.0333467C10.25 -0.0190019 10.1963 -0.0113091 10.1095 0.0677454ZM7.69722 1.24822C7.662 1.30516 7.57795 3.09602 7.60903 3.12704C7.63742 3.15544 8.08192 3.23502 8.10149 3.2152C8.1242 3.19221 9.0267 1.33209 9.0186 1.32502C8.99574 1.30501 8.44217 1.24643 8.10622 1.22848C7.80895 1.2126 7.71648 1.21704 7.69722 1.24822ZM6.35251 1.34072C5.65418 1.46596 4.92824 1.7081 4.28858 2.02913C3.76638 2.29125 3.12525 2.70178 3.09645 2.79253C3.08316 2.83443 3.18082 3.00427 3.43299 3.37784C3.62838 3.66729 3.80453 3.91071 3.82445 3.91878C3.84437 3.92684 4.03435 3.84804 4.24662 3.74366C4.9861 3.38003 5.79928 3.16426 6.54805 3.13298C6.77899 3.12332 6.98394 3.09996 7.01096 3.0802C7.05474 3.04821 7.05462 2.96909 7.00955 2.26376C6.94213 1.20819 6.95746 1.27896 6.79672 1.28208C6.72439 1.28349 6.5245 1.30988 6.35251 1.34072ZM10.5273 1.76185C10.5273 1.76917 10.4147 2.26276 10.2771 2.85873C10.1395 3.45471 10.0269 3.95902 10.0269 3.97941C10.0269 4.02182 10.3936 4.29601 10.4921 4.32725C10.5496 4.34551 10.626 4.24381 11.1372 3.4675C11.8172 2.435 11.8272 2.41749 11.7756 2.35532C11.7215 2.29015 11.2793 2.05412 10.9031 1.8896C10.596 1.75525 10.5273 1.73189 10.5273 1.76185ZM11.7241 3.71242C11.3288 4.19056 10.9892 4.61175 10.9695 4.64847C10.9376 4.70813 10.9602 4.74516 11.1836 4.99852C11.7374 5.62674 12.0474 6.12495 12.3427 6.86149C12.4966 7.24545 12.5275 7.3002 12.5938 7.30658C12.6354 7.31058 13.2323 7.08543 13.9202 6.80624C14.9846 6.37428 15.1725 6.28857 15.1807 6.23131C15.1922 6.15019 14.8844 5.52951 14.6426 5.1464C14.3365 4.66144 13.9334 4.15303 13.5144 3.7232C13.0901 3.28803 12.5725 2.8431 12.4905 2.8431C12.4643 2.8431 12.1195 3.2343 11.7241 3.71242ZM2.11949 3.64212C1.5688 4.21892 1.14113 4.83907 0.775755 5.59071C0.535871 6.08418 0.348085 6.57164 0.372946 6.63643C0.392366 6.687 1.03865 6.94683 1.11061 6.93298C1.13647 6.92798 1.24649 6.7649 1.35512 6.57054C1.82551 5.7289 2.32282 5.1191 2.99863 4.55522C3.18351 4.40092 3.3348 4.26276 3.3348 4.24816C3.3348 4.23356 3.25387 4.12533 3.15499 4.00762C2.61699 3.36727 2.56674 3.31386 2.5016 3.31301C2.45657 3.31245 2.33098 3.42065 2.11949 3.64212ZM14.0382 7.42063C13.312 7.62999 12.7017 7.81737 12.6821 7.83698C12.6554 7.86369 12.6558 7.92632 12.6836 8.08631C12.7881 8.6861 12.7754 9.59463 12.6544 10.1885C12.6196 10.3592 12.5912 10.5142 12.5912 10.533C12.5912 10.5843 15.9109 10.581 15.9623 10.5296C16.0171 10.4748 16.0107 9.42504 15.9525 8.92723C15.8988 8.46857 15.7823 7.86569 15.6701 7.46647C15.5523 7.04734 15.5448 7.03302 15.4455 7.03671C15.3978 7.03849 14.7645 7.21127 14.0382 7.42063ZM0.145602 7.42307C0.129528 7.46535 0.0911891 7.65886 0.0603866 7.85305C-0.044123 8.5121 -0.00547129 10.2747 0.118708 10.5124C0.153169 10.5784 0.431455 10.5904 0.481646 10.5281C0.499377 10.506 0.520892 10.182 0.530961 9.78539C0.55085 9.00078 0.593973 8.69682 0.785418 7.99209C0.884424 7.62765 0.896244 7.55278 0.860251 7.5192C0.813093 7.47523 0.35337 7.3462 0.243826 7.3462C0.199326 7.3462 0.164458 7.37347 0.145602 7.42307ZM7.4048 8.58478C7.63305 8.70026 7.78209 9.00904 7.73152 9.26184C7.68493 9.49487 7.37787 9.75411 7.14846 9.75411C6.92631 9.75411 6.67357 9.59463 6.58432 9.39812C6.34456 8.87019 6.89338 8.32613 7.4048 8.58478Z" fill="#FA7D42"/>
</svg>
