<svg width="17" height="16" viewBox="0 0 17 16" fill="none" xmlns="http://www.w3.org/2000/svg">
<rect width="16.0092" height="16" rx="8" fill="white"/>
<mask id="mask0_44_139" style="mask-type:alpha" maskUnits="userSpaceOnUse" x="2" y="2" width="12" height="12">
<path fill-rule="evenodd" clip-rule="evenodd" d="M7.39841 2.02197C6.60375 2.096 5.71803 2.38055 5.00788 2.78999C3.61338 3.59398 2.57663 4.94632 2.18229 6.47575C2.03412 7.05039 2.00919 7.27065 2.00919 8.00513C2.00919 8.58671 2.01582 8.71104 2.06039 8.96673C2.28093 10.2314 2.80882 11.2784 3.68329 12.1856C4.58201 13.118 5.71306 13.7104 7.03444 13.9408C7.29014 13.9854 7.41447 13.992 7.99605 13.992C8.73053 13.992 8.95079 13.9671 9.52543 13.8189C11.5924 13.2859 13.2768 11.6017 13.8097 9.53509C13.9623 8.94325 13.9786 8.78322 13.9898 7.77662L14 6.85673H10.998H7.99605V8.00513V9.15352H9.7538C10.7206 9.15352 11.5115 9.15617 11.5115 9.15938C11.5115 9.16259 11.4913 9.21797 11.4667 9.28242C11.268 9.80129 10.9829 10.241 10.5951 10.6267C9.58386 11.6323 8.09422 11.9653 6.75391 11.4854C5.72059 11.1154 4.88573 10.2806 4.51576 9.24727C4.36356 8.82215 4.30759 8.48827 4.30759 8.00513C4.30759 7.41199 4.40401 6.97267 4.65314 6.43033C4.99173 5.69327 5.68419 5.00081 6.42125 4.66222C7.37263 4.22517 8.38826 4.19023 9.34394 4.56168C9.58163 4.65406 9.91288 4.83134 10.1053 4.96915C10.1634 5.01068 10.2231 5.05167 10.2381 5.06024C10.265 5.07562 11.6522 3.30086 11.6522 3.2511C11.6522 3.23814 11.5546 3.16005 11.4354 3.07753C10.6079 2.50495 9.74454 2.17381 8.73529 2.04196C8.47673 2.00819 7.67504 1.99619 7.39841 2.02197Z" fill="black"/>
</mask>
<g mask="url(#mask0_44_139)">
<path d="M3.45392 3.4528L5.55776 5.5633C6.29234 5.59659 7.8214 5.62056 8.00781 5.60991C8.24083 5.59659 10.9505 5.74306 11.0704 5.70311C11.1902 5.66317 12.7282 4.51138 12.7481 4.4448C12.7681 4.37822 12.6283 3.3263 12.595 3.21312C12.5617 3.09994 11.0105 2.12125 10.9505 2.10128C10.9026 2.0853 8.58704 1.80168 7.43525 1.66187L5.05843 2.19448L3.45392 3.4528Z" fill="#EA4235"/>
<path d="M3.61368 3.6059L5.57106 5.57659L5.53777 10.4567L3.73352 12.2543L3.35403 12.7869C2.97676 12.656 2.22221 12.3768 2.22221 12.3076C2.22221 12.2383 1.71179 8.60808 1.45657 6.80161L3.61368 3.6059Z" fill="#FABC05"/>
<path d="M5.49117 10.5033L3.72021 12.2676L4.08639 13.5059L6.09037 14.2782L10.7907 14.205L12.3819 12.3675L10.5444 10.5366L5.49117 10.5033Z" fill="#34A853"/>
<path d="M7.93457 9.68446C7.94789 8.69245 7.96653 6.68581 7.93457 6.59526L14.3926 6.36224V10.1904L12.4086 12.4141L10.5311 10.5233L7.93457 9.68446Z" fill="#4286F5"/>
</g>
</svg>
