<svg width="15" height="16" viewBox="0 0 15 16" fill="none" xmlns="http://www.w3.org/2000/svg">
<path fill-rule="evenodd" clip-rule="evenodd" d="M1.64331 0.0490209C1.50173 0.122625 1.40676 0.220753 1.3427 0.359546C1.28802 0.478007 1.28493 0.624308 1.28427 3.10445L1.28358 5.72422H1.00762C0.838547 5.72422 0.675668 5.7433 0.58708 5.77349C0.398519 5.83774 0.19219 6.02186 0.0946247 6.21292L0.016704 6.36548L0.00835201 8.92654L0 11.4876L0.0737291 11.648C0.181492 11.8823 0.302799 12.0091 0.515854 12.1099C0.681361 12.1882 0.740888 12.1993 0.994232 12.1993L1.28358 12.1994V13.8663V15.5332L1.35396 15.6709C1.39266 15.7467 1.47843 15.8517 1.54456 15.9043L1.66477 16H7.10183H12.5389L12.6591 15.9043C12.7252 15.8517 12.811 15.7467 12.8497 15.6709L12.9201 15.5332V13.8663V12.1994L13.2094 12.1993C13.4637 12.1993 13.5215 12.1884 13.6865 12.1094C13.9142 12.0004 14.0173 11.8951 14.1232 11.6636L14.2037 11.4876L14.1953 8.92654L14.187 6.36548L14.109 6.21292C14.0115 6.02186 13.8051 5.83774 13.6166 5.77349C13.528 5.7433 13.3651 5.72422 13.196 5.72422H12.9201L12.919 4.73105C12.9182 4.00978 12.9075 3.7203 12.8799 3.67373C12.8177 3.56869 9.77244 0.10542 9.69389 0.0503973C9.62829 0.0044456 9.26037 -0.000152695 5.67939 3.70958e-06C2.1687 0.000191395 1.72689 0.00554043 1.64331 0.0490209ZM9.17288 2.3172L9.18201 3.97765L9.28417 4.06893L9.38634 4.16018H10.8248H12.2632V4.9422V5.72422H7.10183H1.94048V3.19047V0.656715H5.55211H9.16377L9.17288 2.3172ZM4.59936 7.02238V7.44467H3.97374H3.34812V9.35281V11.2609H2.81635H2.28457V9.35281V7.44467H1.65895H1.03333V7.02238V6.60009H2.81635H4.59936V7.02238ZM6.46389 7.09276C6.59323 7.36372 6.76384 7.72974 6.84304 7.90607C6.92225 8.0824 6.9966 8.2267 7.00827 8.2267C7.01994 8.2267 7.07418 8.11246 7.12883 7.97285C7.1835 7.83324 7.34254 7.46726 7.48227 7.15955L7.73633 6.60009H8.31059C8.62643 6.60009 8.88484 6.608 8.88484 6.6177C8.88484 6.62737 8.59612 7.13471 8.24321 7.74516C7.66892 8.73848 7.60539 8.86226 7.63814 8.92404C7.65822 8.96202 7.95179 9.47167 8.2905 10.0566C8.62921 10.6416 8.9231 11.1518 8.94359 11.1906L8.98087 11.2609H8.39279H7.80471L7.3833 10.4162C7.1515 9.95162 6.94937 9.57568 6.93413 9.58075C6.91887 9.58585 6.81836 9.79352 6.71079 10.0423C6.60321 10.291 6.43648 10.6635 6.34026 10.8699L6.16534 11.2453L5.58568 11.2538C5.26686 11.2585 5.00601 11.2566 5.00601 11.2495C5.00601 11.2425 5.30803 10.7086 5.67714 10.0631L6.34824 8.88944L5.70842 7.75648C5.35651 7.13337 5.06857 6.61826 5.06857 6.61182C5.06857 6.60537 5.32961 6.60009 5.64864 6.60009H6.22872L6.46389 7.09276ZM12.8575 7.02238V7.44467H12.2163H11.575V9.35281V11.2609H11.0589H10.5427V9.35281V7.44467H9.91711H9.29149V7.02238V6.60009H11.0745H12.8575V7.02238ZM12.2632 13.7009V15.2023H7.10183H1.94048V13.7009V12.1994H7.10183H12.2632V13.7009Z" fill="#FA7D41"/>
</svg>
