<svg width="24" height="24" viewBox="0 0 24 24" fill="none" xmlns="http://www.w3.org/2000/svg">
<path fill-rule="evenodd" clip-rule="evenodd" d="M11.1629 9.08362C11.0708 9.12961 10.9623 9.20651 10.9218 9.25453C10.8156 9.38026 10.7204 9.59894 10.7201 9.7178L10.7199 9.82035H11.9504H13.1809L13.1806 9.7178C13.1803 9.59894 13.0852 9.38026 12.979 9.25453C12.9384 9.20651 12.83 9.12961 12.7379 9.08362L12.5706 9H11.9504H11.3302L11.1629 9.08362ZM14.9173 9.03793C14.5998 9.13981 14.306 9.38655 14.1715 9.66421C14.1263 9.75762 14.0298 10.0155 13.9571 10.2374L13.8249 10.6407L12.3203 10.6414C10.8353 10.6421 10.8132 10.6429 10.6362 10.7032C10.1553 10.8672 9.79875 11.2296 9.65243 11.7032C9.60015 11.8724 9.59872 11.9778 9.59872 15.6995C9.59872 19.4212 9.60015 19.5266 9.65243 19.6958C9.79875 20.1695 10.1553 20.5318 10.6362 20.6958L10.8156 20.7569H16.599H22.3825L22.5618 20.6958C23.0428 20.5318 23.3993 20.1695 23.5456 19.6958C23.5979 19.5266 23.5993 19.4223 23.5986 15.6898L23.5979 11.8575L23.5368 11.6782C23.369 11.186 23.0017 10.8315 22.5074 10.6848C22.3787 10.6466 22.1597 10.6407 20.866 10.6407H19.3731L19.241 10.2374C19.1683 10.0155 19.0718 9.75762 19.0265 9.66421C18.9196 9.44356 18.6835 9.21736 18.439 9.10159L18.2534 9.01367L16.64 9.00823C15.3893 9.00402 15.0021 9.01069 14.9173 9.03793ZM16.9682 11.5004C17.8195 11.551 18.746 11.9941 19.4098 12.668C19.9263 13.1923 20.2592 13.7944 20.4477 14.5451C20.5155 14.8149 20.5214 14.8826 20.5222 15.3987C20.5231 16.0126 20.4961 16.2043 20.3427 16.6703C19.9893 17.7447 19.1068 18.6791 18.057 19.0907C17.091 19.4694 16.0294 19.4618 15.0905 19.0695C13.9172 18.5793 13.0727 17.5842 12.7512 16.3133C12.6796 16.0299 12.6756 15.982 12.6771 15.4124C12.6786 14.8305 12.6814 14.8005 12.7624 14.495C13.1564 13.0104 14.2464 11.935 15.7164 11.5808C15.9844 11.5162 16.4902 11.461 16.6537 11.4784C16.6913 11.4825 16.8328 11.4923 16.9682 11.5004ZM12.4103 11.803C12.5343 11.8775 12.6067 12.0034 12.6067 12.1447C12.6067 12.2858 12.5343 12.4117 12.4103 12.4865C12.3282 12.5359 12.2711 12.5412 11.8137 12.5412C11.3563 12.5412 11.2991 12.5359 11.217 12.4865C11.0279 12.3725 10.962 12.1182 11.074 11.9345C11.1786 11.763 11.2911 11.7359 11.8684 11.743C12.2644 11.7479 12.3306 11.7552 12.4103 11.803ZM21.7224 11.8137C21.8417 11.8924 21.9036 12.0054 21.9036 12.1447C21.9036 12.3647 21.7412 12.5271 21.5211 12.5271C21.2282 12.5271 21.0439 12.2151 21.1806 11.9507C21.2719 11.7741 21.5541 11.7028 21.7224 11.8137ZM16.1205 12.2994C15.2841 12.4323 14.5106 12.9116 14.0175 13.6026C13.843 13.8471 13.6354 14.2935 13.5446 14.6194C13.4732 14.8757 13.4684 14.9263 13.4684 15.4261C13.4684 15.9254 13.4732 15.9767 13.5444 16.2327C13.7421 16.9436 14.1584 17.5494 14.7532 17.9918C14.9819 18.1619 15.4674 18.3903 15.7924 18.4807C16.0495 18.5522 16.0977 18.5566 16.599 18.5556C17.0883 18.5545 17.1543 18.5484 17.3996 18.4819C17.7112 18.3974 18.1068 18.2168 18.3852 18.0317C18.6236 17.8732 19.0032 17.5011 19.178 17.2544C19.3556 17.0037 19.5626 16.5591 19.6535 16.2327C19.7249 15.9765 19.7297 15.9258 19.7297 15.4261C19.7297 14.9267 19.7249 14.8755 19.6536 14.6194C19.347 13.5167 18.5091 12.675 17.4194 12.3747C17.1938 12.3125 17.0966 12.302 16.6811 12.2947C16.4179 12.2901 16.1656 12.2922 16.1205 12.2994ZM17.1145 13.323C17.537 13.4201 17.9819 13.6985 18.273 14.0479C18.4419 14.2506 18.6595 14.695 18.7161 14.9529C18.7718 15.2066 18.7714 15.6479 18.7154 15.8992C18.6197 16.328 18.3224 16.8147 17.9855 17.0937C17.7721 17.2705 17.3317 17.4861 17.0643 17.5449C16.8026 17.6024 16.3955 17.6024 16.1337 17.5449C16.0212 17.5202 15.806 17.4402 15.6556 17.3672C15.1858 17.1391 14.886 16.8392 14.6579 16.3695C14.4961 16.0363 14.4388 15.7893 14.4388 15.4261C14.4388 15.0629 14.4961 14.8158 14.6579 14.4827C14.8859 14.013 15.1856 13.7132 15.6556 13.4847C16.1431 13.2477 16.5778 13.1995 17.1145 13.323ZM16.1609 14.1211C15.5794 14.3193 15.2318 14.8084 15.2318 15.4281C15.2318 16.2119 15.8141 16.7933 16.599 16.7933C17.385 16.7933 17.9663 16.212 17.9663 15.4261C17.9663 14.7911 17.5884 14.2823 16.9837 14.1029C16.7615 14.0369 16.383 14.0453 16.1609 14.1211Z" fill="white"/>
<path fill-rule="evenodd" clip-rule="evenodd" d="M0.749464 1.21581C1.01672 0.66963 1.43143 0.294165 1.98876 0.0936789C2.23079 0.00661097 2.42823 0.00332893 7.51915 0.00168791L12.7985 0L12.9814 0.135595C13.3256 0.390891 18.8069 5.92685 18.8357 6.04834C18.8403 6.0675 18.8441 6.41009 18.847 7H16V7.03295H15.4931C13.6513 7.03295 13.5138 7.02718 13.2574 6.93899C12.6878 6.743 12.2745 6.37359 12.0022 5.81714L11.8514 5.50914L11.8378 3.45787L11.8243 1.40659L7.26643 1.41137C4.75965 1.41404 2.64531 1.43149 2.56795 1.45019C2.35841 1.50092 2.22287 1.59859 2.10814 1.78168L2.00531 1.94578V12.0029V22.06L2.10757 22.2241C2.16379 22.3144 2.27983 22.4304 2.36545 22.482C2.51928 22.5747 2.60419 22.5758 9.71811 22.5758C16.832 22.5758 16.9169 22.5747 17.0708 22.482C17.1564 22.4304 17.2724 22.3144 17.3287 22.2241L17.4309 22.06L17.431 22H18.8383L18.8375 22.482L18.6772 22.8102C18.4673 23.2396 18.0948 23.6122 17.6653 23.822L17.3371 23.9824L9.81254 23.9946C2.40826 24.0067 2.28349 24.0054 2.01174 23.9137C1.44085 23.7209 1.02295 23.3489 0.749464 22.79L0.598724 22.482V12.0029V1.52381L0.749464 1.21581ZM14.8522 5.61797C15.4453 5.62626 16.0311 5.62626 16.154 5.61797L16.3774 5.60292L14.8036 4.03222L13.2299 2.46153L13.244 3.77435C13.2574 5.02921 13.2625 5.09439 13.3603 5.25127C13.5663 5.58182 13.6447 5.60113 14.8522 5.61797Z" fill="white"/>
</svg>
