<svg width="29" height="24" viewBox="0 0 29 24" fill="none" xmlns="http://www.w3.org/2000/svg">
<path fill-rule="evenodd" clip-rule="evenodd" d="M11.0298 0.140625C10.8527 0.257937 10.6622 0.58925 9.87997 2.14056L8.94247 3.99988L6.00072 3.99994C3.49985 4 3.00804 4.01488 2.71947 4.09906C1.79516 4.36888 1.00379 5.14713 0.717162 6.06819C0.603662 6.43275 0.598724 6.76425 0.598724 14C0.598724 21.2358 0.603662 21.5672 0.717162 21.9318C1.00379 22.8529 1.79516 23.6311 2.71947 23.9009C3.02391 23.9897 4.24904 24 14.5987 24C24.9484 24 26.1735 23.9897 26.478 23.9009C27.4023 23.6311 28.1937 22.8529 28.4803 21.9318C28.5938 21.5672 28.5987 21.2358 28.5987 14C28.5987 6.76425 28.5938 6.43275 28.4803 6.06819C28.1937 5.14713 27.4023 4.36888 26.478 4.09906C26.1894 4.01488 25.6976 4 23.1967 3.99994L20.255 3.99988L19.3175 2.14056C18.5353 0.58925 18.3448 0.257937 18.1676 0.140625L17.9552 0H14.5987H11.2422L11.0298 0.140625ZM17.88 3.85744C18.5495 5.18381 18.8679 5.75106 18.9938 5.84175C19.1645 5.96463 19.2783 5.96975 22.4938 6C25.7043 6.03019 25.8249 6.03562 26.036 6.15963C26.3372 6.33656 26.5209 6.634 26.5667 7.01875C26.5879 7.1975 26.5968 10.4656 26.5863 14.2812C26.5679 21.0887 26.5652 21.2227 26.4425 21.4309C26.2817 21.704 26.0575 21.8689 25.7502 21.9402C25.4245 22.0157 3.77291 22.0157 3.44729 21.9402C3.13997 21.8689 2.91579 21.704 2.75497 21.4309C2.63229 21.2227 2.6296 21.0887 2.6111 14.2812C2.60066 10.4656 2.60954 7.1975 2.63079 7.01875C2.67654 6.634 2.86022 6.33656 3.16141 6.15963C3.37254 6.03562 3.4931 6.03019 6.7036 6C9.9191 5.96975 10.033 5.96463 10.2036 5.84175C10.3295 5.75106 10.648 5.18381 11.3175 3.85744L12.255 2.00012H14.5987H16.9425L17.88 3.85744ZM13.3487 8.0935C11.1176 8.59144 9.41391 10.1996 8.77291 12.4128C8.64822 12.8432 8.62997 13.0461 8.62997 14C8.62997 14.9539 8.64822 15.1568 8.77291 15.5872C9.37335 17.6603 10.9207 19.2164 12.9779 19.8161C13.6833 20.0218 15.1176 20.0554 15.8907 19.8844C18.0854 19.3991 19.7878 17.7854 20.4245 15.5872C20.5492 15.1568 20.5675 14.9539 20.5675 14C20.5675 13.0461 20.5492 12.8432 20.4245 12.4128C19.8223 10.3337 18.285 8.78744 16.2195 8.18344C15.6107 8.00537 13.9733 7.95412 13.3487 8.0935ZM22.0513 8.12469C21.7463 8.31063 21.5992 8.59544 21.5992 9C21.5992 9.40456 21.7463 9.68937 22.0513 9.87531C22.228 9.98306 22.3668 9.99956 23.0987 9.99956C23.8307 9.99956 23.9695 9.98306 24.1462 9.87531C24.4512 9.68937 24.5983 9.40456 24.5983 9C24.5983 8.59544 24.4512 8.31063 24.1462 8.12469C23.9695 8.01694 23.8307 8.00044 23.0987 8.00044C22.3668 8.00044 22.228 8.01694 22.0513 8.12469ZM15.8507 10.2502C16.9977 10.6354 17.9812 11.6194 18.3525 12.7531C18.4843 13.1556 18.5047 13.3332 18.5028 14.0625C18.5007 14.8634 18.4904 14.9316 18.3005 15.4062C17.8257 16.5926 16.7815 17.5223 15.5629 17.8434C15.0769 17.9715 14.1515 17.9706 13.65 17.8415C12.2312 17.4764 11.1208 16.3631 10.7538 14.9375C10.5968 14.3279 10.6475 13.3032 10.8647 12.6949C11.5898 10.6637 13.8224 9.56913 15.8507 10.2502Z" fill="white"/>
</svg>
