<svg width="16" height="10" viewBox="0 0 16 10" fill="none" xmlns="http://www.w3.org/2000/svg">
<path fill-rule="evenodd" clip-rule="evenodd" d="M3.40917 0.0449746C3.32248 0.185288 3.44829 0.35502 3.81394 0.591101C4.19889 0.839649 5.34711 1.41363 5.79559 1.58174C6.09765 1.69493 6.19024 1.79138 6.11362 1.91286C6.06385 1.99183 5.78302 2.00216 3.03914 2.02584L0.0194803 2.05192L0.0036754 2.26912C-0.0108775 2.46859 0.00831776 2.50625 0.2384 2.72991C1.06333 3.53199 2.70557 4.60031 4.6565 5.60394C6.00804 6.2993 5.95771 6.35521 3.98012 6.35521C2.75914 6.35521 2.55268 6.36653 2.49452 6.43658C2.37069 6.58576 2.50287 6.77725 2.97926 7.13893C4.26362 8.11393 6.32628 8.99482 8.31309 9.41686C8.86835 9.5348 9.09592 9.55258 10.3289 9.57444C11.8731 9.60182 12.1637 9.5686 12.9135 9.27895C14.2937 8.74576 15.3176 7.68193 15.8336 6.245C15.9603 5.89228 15.9739 5.7768 15.9943 4.8802C16.0197 3.76688 15.9676 3.41839 15.6764 2.7561C15.108 1.46339 14.0842 0.588076 12.6164 0.139543L12.2252 0.0199895L7.83472 0.00408054C4.7085 -0.00723841 3.43415 0.00454981 3.40917 0.0449746ZM12.0165 1.6169C12.7507 1.77025 13.6309 2.39525 14.0183 3.03834C14.578 3.96738 14.6441 5.15316 14.1899 6.11559C13.5397 7.49311 11.9922 8.24365 10.5333 7.88896C9.89999 7.73503 9.45516 7.47845 8.96511 6.98459C8.28951 6.30378 8.02589 5.66543 8.02662 4.7123C8.02725 3.85764 8.28743 3.19738 8.86736 2.57865C9.67512 1.71674 10.8203 1.36705 12.0165 1.6169ZM11.008 2.3023C10.9131 2.41674 10.8793 2.78505 10.9455 2.9855C10.9912 3.12399 11.0442 3.18111 11.1469 3.20249C11.823 3.34348 12.0328 3.43586 12.2847 3.70345C12.5065 3.93896 12.6477 4.23606 12.7156 4.60949C12.7907 5.02245 12.8908 5.10335 13.3263 5.10335C13.7445 5.10335 13.8689 5.00429 13.867 4.67302C13.8609 3.62333 13.0233 2.60087 11.9315 2.31028C11.5765 2.21581 11.0834 2.21154 11.008 2.3023Z" fill="#FA7C41"/>
</svg>
