<svg width="23" height="22" viewBox="0 0 23 22" fill="none" xmlns="http://www.w3.org/2000/svg">
<path d="M21.5987 3V2.5C21.5987 1.83696 21.3353 1.20107 20.8665 0.732233C20.3976 0.263392 19.7618 0 19.0987 0C18.4357 0 17.7998 0.263392 17.331 0.732233C16.8621 1.20107 16.5987 1.83696 16.5987 2.5V3C16.0487 3 15.5987 3.45 15.5987 4V8C15.5987 8.55 16.0487 9 16.5987 9H21.5987C22.1487 9 22.5987 8.55 22.5987 8V4C22.5987 3.45 22.1487 3 21.5987 3ZM20.7987 3H17.3987V2.5C17.3987 1.56 18.1587 0.8 19.0987 0.8C20.0387 0.8 20.7987 1.56 20.7987 2.5V3ZM18.5187 11C18.5587 11.33 18.5987 11.66 18.5987 12C18.5987 14.08 17.7987 15.97 16.4987 17.39C16.2387 16.58 15.4987 16 14.5987 16H13.5987V13C13.5987 12.45 13.1487 12 12.5987 12H6.59872V10H8.59872C9.14872 10 9.59872 9.55 9.59872 9V7H11.5987C12.6987 7 13.5987 6.1 13.5987 5V2.46C12.6487 2.16 11.6487 2 10.5987 2C5.07872 2 0.598724 6.48 0.598724 12C0.598724 17.52 5.07872 22 10.5987 22C16.1187 22 20.5987 17.52 20.5987 12C20.5987 11.66 20.5787 11.33 20.5487 11H18.5187ZM9.59872 19.93C5.64872 19.44 2.59872 16.08 2.59872 12C2.59872 11.38 2.67872 10.79 2.80872 10.21L7.59872 15V16C7.59872 17.1 8.49872 18 9.59872 18V19.93Z" fill="white"/>
</svg>
