<svg width="17" height="16" viewBox="0 0 17 16" fill="none" xmlns="http://www.w3.org/2000/svg">
<path fill-rule="evenodd" clip-rule="evenodd" d="M0.336172 0.0419818C0.192514 0.104734 0.0422083 0.287202 0.0160496 0.430646C0.0045069 0.49397 -0.00013881 1.2401 0.00568615 2.08876C0.0160138 3.58281 0.0186583 3.63488 0.090023 3.7304C0.130548 3.78464 0.208095 3.86219 0.262378 3.90272L0.36108 3.9764H8.00332H15.6456L15.7443 3.90272C15.7986 3.86219 15.8761 3.78464 15.9166 3.73036C15.9885 3.63405 15.9903 3.59231 15.9903 1.99306C15.9903 0.393802 15.9885 0.352063 15.9166 0.255754C15.8761 0.201471 15.7986 0.123924 15.7443 0.0833998L15.6456 0.00971219L8.04538 0.00202896C1.78123 -0.00426057 0.426013 0.00274368 0.336172 0.0419818ZM2.28557 1.99306V2.85072H1.71379H1.14202V1.99306V1.13539H1.71379H2.28557V1.99306ZM4.57267 1.99306V2.85072H4.0009H3.42912V1.99306V1.13539H4.0009H4.57267V1.99306ZM6.85977 1.99306V2.85072H6.288H5.71622V1.99306V1.13539H6.288H6.85977V1.99306ZM0.336172 5.18796C0.192514 5.25071 0.0422083 5.43318 0.0160496 5.57662C0.0045069 5.63995 -0.00013881 6.38608 0.00568615 7.23474C0.0160138 8.72879 0.0186583 8.78085 0.090023 8.87638C0.130548 8.93062 0.208095 9.00817 0.262378 9.04869L0.36108 9.12238H8.00332H15.6456L15.7443 9.04869C15.7986 9.00817 15.8761 8.93062 15.9166 8.87634C15.9885 8.78003 15.9903 8.73829 15.9903 7.13904C15.9903 5.53978 15.9885 5.49804 15.9166 5.40173C15.8761 5.34745 15.7986 5.2699 15.7443 5.22938L15.6456 5.15569L8.04538 5.14801C1.78123 5.14172 0.426013 5.14872 0.336172 5.18796ZM2.28557 7.13904V7.9967H1.71379H1.14202V7.13904V6.28137H1.71379H2.28557V7.13904ZM4.57267 7.13904V7.9967H4.0009H3.42912V7.13904V6.28137H4.0009H4.57267V7.13904ZM6.85977 7.13904V7.9967H6.288H5.71622V7.13904V6.28137H6.288H6.85977V7.13904ZM4.0009 11.4274V12.5709H3.66558H3.33031L3.23332 12.3726C3.02666 11.9503 2.59676 11.6054 2.12326 11.4821C0.900407 11.1635 -0.265335 12.3293 0.0531792 13.5521C0.291574 14.4673 1.22921 15.0361 2.11786 14.8047C2.23039 14.7754 2.40621 14.709 2.50853 14.6571C2.75625 14.5316 3.10642 14.1744 3.22932 13.9219L3.32834 13.7185L4.05521 13.7075C4.85166 13.6955 4.87428 13.6897 5.05289 13.4506C5.12426 13.3551 5.1269 13.3034 5.13662 11.8179L5.14666 10.2838H4.57378H4.0009V11.4274ZM7.43155 11.4768V12.6697L7.22607 12.7697C6.97152 12.8936 6.61491 13.2428 6.48887 13.4915C5.9816 14.4926 6.51145 15.6649 7.59926 15.9482C8.75217 16.2485 9.8949 15.1947 9.6932 14.0172C9.60465 13.5002 9.23042 12.9887 8.78058 12.7697L8.5751 12.6697V11.4768V10.2838H8.00332H7.43155V11.4768ZM10.8698 11.532C10.8796 12.7285 10.8831 12.7843 10.9538 12.8788C11.1324 13.1179 11.155 13.1238 11.9514 13.1357L12.6783 13.1467L12.7773 13.3502C12.9002 13.6027 13.2504 13.9598 13.4981 14.0854C14.1934 14.4377 14.9923 14.3064 15.5202 13.753C16.168 13.0738 16.168 12.068 15.5202 11.3888C14.9923 10.8354 14.1934 10.7041 13.4981 11.0564C13.2494 11.1825 12.9002 11.5391 12.7764 11.7936L12.6763 11.9991H12.3411H12.0058V11.1415V10.2838H11.4327H10.8596L10.8698 11.532Z" fill="#FA7C41"/>
</svg>
