<svg width="19" height="18" viewBox="0 0 19 18" fill="none" xmlns="http://www.w3.org/2000/svg">
<circle cx="9" cy="9.00098" r="9" fill="white"/>
<path fill-rule="evenodd" clip-rule="evenodd" d="M8.07932 0.0177427C4.91859 0.362816 2.21035 2.27697 0.855993 5.12307C0.467384 5.93971 0.22625 6.73408 0.07703 7.68913C-0.00609841 8.22118 -0.02643 9.42241 0.0381692 9.98417C0.278712 12.0757 1.15866 13.9076 2.62912 15.3781C4.03948 16.7884 5.74795 17.639 7.78364 17.9443C8.27028 18.0173 9.74693 18.0173 10.2336 17.9443C12.2693 17.639 13.9777 16.7884 15.3881 15.3781C16.8505 13.9157 17.7373 12.077 17.9758 10.0123C18.0031 9.77666 18.0198 9.39135 18.0198 8.99857C18.0198 8.30952 17.9774 7.83888 17.8616 7.24265C17.3227 4.46644 15.4596 2.07205 12.8841 0.845873C12.0745 0.460418 11.2695 0.216018 10.318 0.0667693C10.0266 0.0210656 9.78543 0.00754876 9.13533 0.000480596C8.68617 -0.00439109 8.21097 0.00335292 8.07932 0.0177427ZM12.5849 8.98449V14.4053H11.6838H10.7827V9.68849V4.97168H10.2204C9.35931 4.97168 8.89022 5.05566 8.42389 5.29333C8.31956 5.34649 8.16876 5.44795 8.08881 5.51881C7.94979 5.64198 7.71324 5.9534 7.71324 6.0133C7.71324 6.02895 7.70263 6.04177 7.68964 6.04177C7.67669 6.04177 7.64234 6.11464 7.61336 6.20369C7.58435 6.29273 7.54789 6.38287 7.53232 6.40396C7.49312 6.45704 7.47698 7.28852 7.51148 7.47793C7.57672 7.83624 7.6741 8.12251 7.79885 8.32273C7.81332 8.34596 7.8461 8.40298 7.87167 8.44945C8.00645 8.69433 8.27963 8.97235 8.71811 9.31092C9.0821 9.59201 9.20164 9.67587 9.78301 10.0582C9.98435 10.1906 10.1521 10.3019 10.1558 10.3055C10.1595 10.3091 10.1374 10.3392 10.1065 10.3722C10.0757 10.4053 10.0505 10.4387 10.0505 10.4464C10.0505 10.4606 9.9293 10.651 9.88759 10.7023C9.81764 10.7882 9.07104 11.9136 8.98154 12.068C8.95014 12.1222 8.85395 12.2659 8.76781 12.3873C8.60107 12.6223 8.34434 13.005 8.19793 13.2367C8.14899 13.3141 8.09898 13.3901 8.08679 13.4056C8.07459 13.4211 7.91974 13.6524 7.74264 13.9195L7.42066 14.4053H6.4388H5.45695L5.53858 14.2856C5.5835 14.2198 5.67065 14.0899 5.73224 13.997C5.79383 13.904 5.94795 13.6784 6.07472 13.4956C6.20153 13.3128 6.30524 13.1574 6.30524 13.1502C6.30524 13.1365 6.50605 12.8244 6.53044 12.8002C6.53824 12.7924 6.61278 12.6847 6.69613 12.5608C6.94208 12.1952 7.02166 12.0833 7.05148 12.0614C7.07027 12.0476 7.07027 12.0404 7.05148 12.0399C7.0349 12.0393 7.03597 12.0305 7.05407 12.0183C7.071 12.0069 7.20031 11.8202 7.34147 11.6034C7.64915 11.1307 7.76269 10.9633 7.847 10.8578C7.88187 10.8143 7.91036 10.7678 7.91034 10.7545C7.91034 10.7413 7.79313 10.6422 7.64985 10.5344C7.19932 10.1954 6.63074 9.66126 6.47958 9.43505C6.43818 9.3731 6.39741 9.31607 6.38896 9.30833C6.38051 9.30059 6.31569 9.19921 6.24489 9.08305C5.97132 8.63409 5.80602 8.19595 5.74024 7.74545C5.66849 7.25383 5.72213 6.15683 5.82418 6.02949C5.83736 6.01301 5.85738 5.95517 5.86865 5.90097C5.87991 5.84676 5.91939 5.7355 5.95637 5.65372C5.99337 5.57197 6.02364 5.49929 6.02364 5.49222C6.02364 5.47592 6.17137 5.22926 6.30167 5.028C6.6765 4.44901 7.58168 3.89642 8.45106 3.7158C8.5641 3.69235 8.71507 3.66092 8.78648 3.64599C9.04549 3.5919 9.64235 3.57171 11.0995 3.56774L12.5849 3.56368V8.98449Z" fill="#FF3D14"/>
</svg>
