<svg width="18" height="18" viewBox="0 0 18 18" fill="none" xmlns="http://www.w3.org/2000/svg">
<circle cx="9" cy="9" r="9" fill="white"/>
<path fill-rule="evenodd" clip-rule="evenodd" d="M8.28794 2.02911C5.83575 2.29683 3.73463 3.78188 2.68388 5.98997C2.38239 6.62354 2.19531 7.23984 2.07954 7.98079C2.01504 8.39357 1.99927 9.32552 2.04939 9.76135C2.23601 11.384 2.91869 12.8053 4.05952 13.9461C5.15372 15.0403 6.4792 15.7002 8.05855 15.937C8.43609 15.9937 9.58172 15.9937 9.95927 15.937C11.5386 15.7002 12.8641 15.0403 13.9583 13.9461C15.0929 12.8115 15.7808 11.385 15.9659 9.7832C15.9871 9.60036 16 9.30142 16 8.99669C16 8.46211 15.9671 8.09697 15.8773 7.6344C15.4592 5.48053 14.0137 3.6229 12.0156 2.6716C11.3875 2.37255 10.763 2.18294 10.0248 2.06715C9.79871 2.03169 9.61159 2.0212 9.10722 2.01572C8.75876 2.01194 8.39008 2.01795 8.28794 2.02911ZM11.7835 8.98577V13.1914H11.0844H10.3853V9.53195V5.87252H9.94909C9.28099 5.87252 8.91706 5.93767 8.55527 6.12206C8.47432 6.16331 8.35733 6.24202 8.29531 6.29699C8.18745 6.39255 8.00393 6.63416 8.00393 6.68063C8.00393 6.69278 7.99569 6.70272 7.98562 6.70272C7.97557 6.70272 7.94892 6.75926 7.92644 6.82834C7.90393 6.89742 7.87564 6.96736 7.86356 6.98372C7.83315 7.0249 7.82063 7.66999 7.84739 7.81693C7.89801 8.09492 7.97356 8.31702 8.07035 8.47236C8.08157 8.49038 8.10701 8.53462 8.12684 8.57067C8.2314 8.76065 8.44335 8.97635 8.78353 9.23902C9.06593 9.4571 9.15867 9.52216 9.60971 9.81879C9.76592 9.92149 9.89609 10.0079 9.89895 10.0106C9.90183 10.0135 9.88464 10.0368 9.86071 10.0624C9.83681 10.0881 9.81726 10.114 9.81726 10.12C9.81726 10.131 9.72321 10.2787 9.69085 10.3185C9.63658 10.3851 9.05734 11.2583 8.98791 11.3781C8.96355 11.4201 8.88892 11.5316 8.82209 11.6258C8.69273 11.8081 8.49355 12.105 8.37997 12.2847C8.342 12.3448 8.30319 12.4038 8.29374 12.4158C8.28428 12.4278 8.16414 12.6072 8.02674 12.8145L7.77694 13.1914H7.01518H6.25343L6.31677 13.0985C6.35161 13.0475 6.41923 12.9467 6.46701 12.8746C6.51479 12.8025 6.63436 12.6275 6.73272 12.4856C6.8311 12.3438 6.91156 12.2232 6.91156 12.2176C6.91156 12.2071 7.06735 11.9649 7.08627 11.9461C7.09233 11.9401 7.15016 11.8565 7.21482 11.7604C7.40564 11.4767 7.46738 11.3899 7.49052 11.3729C7.50509 11.3622 7.50509 11.3566 7.49052 11.3562C7.47765 11.3558 7.47848 11.3489 7.49253 11.3395C7.50566 11.3307 7.60598 11.1858 7.7155 11.0176C7.9542 10.6509 8.04229 10.521 8.1077 10.4392C8.13475 10.4054 8.15686 10.3693 8.15684 10.359C8.15684 10.3487 8.06591 10.2719 7.95475 10.1882C7.60522 9.92523 7.16409 9.51083 7.04682 9.33533C7.0147 9.28726 6.98307 9.24302 6.97651 9.23701C6.96996 9.231 6.91967 9.15235 6.86474 9.06223C6.6525 8.71392 6.52425 8.374 6.47322 8.02448C6.41755 7.64307 6.45917 6.79199 6.53834 6.69319C6.54857 6.68041 6.5641 6.63554 6.57284 6.59348C6.58158 6.55143 6.61221 6.46511 6.64089 6.40166C6.6696 6.33824 6.69309 6.28185 6.69309 6.27637C6.69309 6.26372 6.8077 6.07236 6.90879 5.91621C7.1996 5.46701 7.90186 5.0383 8.57635 4.89817C8.66405 4.87997 8.78117 4.85559 8.83658 4.84401C9.03753 4.80204 9.50058 4.78638 10.6311 4.7833L11.7835 4.78015V8.98577Z" fill="#FF3D14"/>
</svg>
