<svg width="16" height="15" viewBox="0 0 16 15" fill="none" xmlns="http://www.w3.org/2000/svg">
<path fill-rule="evenodd" clip-rule="evenodd" d="M0.207537 0.0589078C0.15841 0.0912836 0.0916898 0.158004 0.059314 0.20713C0.00243756 0.293414 0.00040626 0.42573 0.000218756 4.05438L0 7.81229H5.18763H10.3753L10.3762 7.14821C10.3768 6.78298 10.3908 6.37944 10.4074 6.25147C10.4906 5.61036 10.9859 5.11504 11.627 5.03185C11.755 5.01525 12.3695 5.00122 12.9925 5.00069L14.1254 4.99972L14.1251 2.6481C14.125 0.397041 14.1224 0.292664 14.066 0.20713C14.0337 0.158004 13.9669 0.0912836 13.9178 0.0589078C13.831 0.0016563 13.6381 0 7.06268 0C0.487262 0 0.294382 0.0016563 0.207537 0.0589078ZM11.5203 5.99656C11.4712 6.02893 11.4045 6.09565 11.3721 6.14478C11.3152 6.2311 11.3132 6.36654 11.3132 10.1561C11.3132 13.9457 11.3152 14.0811 11.3721 14.1674C11.4045 14.2165 11.4712 14.2833 11.5203 14.3156C11.6055 14.3718 11.7038 14.3746 13.6566 14.3746C15.6094 14.3746 15.7076 14.3718 15.7929 14.3156C15.842 14.2833 15.9087 14.2165 15.9411 14.1674C15.998 14.0811 16 13.9457 16 10.1561C16 6.36654 15.998 6.2311 15.9411 6.14478C15.9087 6.09565 15.842 6.02893 15.7929 5.99656C15.7076 5.94037 15.6094 5.93765 13.6566 5.93765C11.7038 5.93765 11.6055 5.94037 11.5203 5.99656ZM0.000218756 10.0077C0.00040626 11.1872 0.0040626 11.2711 0.059314 11.3549C0.0916898 11.404 0.15841 11.4707 0.207537 11.5031C0.294132 11.5602 0.452261 11.562 5.33607 11.5622L10.3753 11.5624V10.1561V8.74982H5.18763H0L0.000218756 10.0077ZM13.8866 12.1217C14.023 12.2117 14.0937 12.3408 14.0937 12.4999C14.0937 12.659 14.023 12.7882 13.8866 12.8781C13.6974 13.0028 13.4125 12.9333 13.2784 12.7299C13.2073 12.6221 13.2008 12.4072 13.2648 12.2834C13.3701 12.0797 13.6948 11.9953 13.8866 12.1217ZM5.18763 12.9687V13.4374L4.86731 13.4377C4.60618 13.4378 4.53049 13.4487 4.45764 13.4967C4.31173 13.593 4.25051 13.7139 4.25051 13.9062C4.25051 14.0985 4.31173 14.2194 4.45764 14.3156C4.5433 14.3721 4.65071 14.3746 7.06268 14.3746C9.47465 14.3746 9.58206 14.3721 9.66771 14.3156C9.81362 14.2194 9.87484 14.0985 9.87484 13.9062C9.87484 13.7139 9.81362 13.593 9.66771 13.4967C9.59487 13.4487 9.51918 13.4378 9.25805 13.4377L8.93773 13.4374V12.9687V12.4999H7.06268H5.18763V12.9687Z" fill="#FA7D42"/>
</svg>
