<svg width="13" height="16" viewBox="0 0 13 16" fill="none" xmlns="http://www.w3.org/2000/svg">
<path fill-rule="evenodd" clip-rule="evenodd" d="M3.0197 0.059314C2.97058 0.0916898 2.90385 0.15841 2.87148 0.207537C2.81623 0.29132 2.81257 0.375166 2.81238 1.55473L2.81217 2.81257L3.94501 2.81354C5.16647 2.81457 5.44123 2.83498 5.69508 2.94348C5.90252 3.03214 9.78362 5.93668 9.94994 6.12775C10.1222 6.3256 10.2448 6.60364 10.2802 6.87689C10.2974 7.00949 10.3109 8.2084 10.3114 9.66431L10.3124 12.2191L11.1014 12.2188C11.971 12.2186 11.9947 12.2138 12.1281 12.0115C12.185 11.9251 12.187 11.7863 12.1872 7.83717L12.1874 3.75213L10.0233 3.74331C7.86104 3.73447 7.85907 3.73441 7.74979 3.66631C7.68963 3.62884 7.61229 3.5515 7.57791 3.49443C7.51778 3.39462 7.51507 3.32668 7.50632 1.69536L7.49725 0L5.30313 0.000218756C3.20642 0.00040626 3.10508 0.00303133 3.0197 0.059314ZM8.43731 1.51185V2.81257H10.1628C11.6281 2.81257 11.8814 2.8061 11.8425 2.7696C11.8174 2.74598 11.0585 2.17443 10.1561 1.49951C9.25373 0.824583 8.49787 0.2586 8.47637 0.241725C8.44525 0.217349 8.43731 0.475731 8.43731 1.51185ZM0.20713 3.80941C0.158004 3.84179 0.0912835 3.90851 0.0589077 3.95763C0.00174999 4.04435 0 4.21826 0 9.87525C0 15.5322 0.00174999 15.7061 0.0589077 15.7929C0.0912835 15.842 0.158004 15.9087 0.20713 15.9411C0.293601 15.9981 0.438449 16 4.68721 16C8.93598 16 9.08082 15.9981 9.1673 15.9411C9.21642 15.9087 9.28314 15.842 9.31552 15.7929C9.37246 15.7065 9.37443 15.5673 9.37461 11.6029L9.37483 7.50222L7.21071 7.49341C5.04847 7.48457 5.0465 7.4845 4.93722 7.41641C4.87706 7.37894 4.79972 7.30159 4.76534 7.24453C4.70521 7.14471 4.70249 7.07677 4.69374 5.44545L4.68468 3.7501L2.49056 3.75031C0.393854 3.7505 0.292507 3.75313 0.20713 3.80941ZM5.62474 5.26195V6.56267H7.35022C8.81554 6.56267 9.06882 6.5562 9.02995 6.5197C9.00479 6.49607 8.2459 5.92453 7.34353 5.2496C6.44116 4.57468 5.6853 4.0087 5.6638 3.99182C5.63267 3.96744 5.62474 4.22583 5.62474 5.26195Z" fill="#FA7C41"/>
</svg>
