<svg width="21" height="20" viewBox="0 0 21 20" fill="none" xmlns="http://www.w3.org/2000/svg">
<path fill-rule="evenodd" clip-rule="evenodd" d="M9.59559 0.0388875C9.36402 0.110282 9.00884 0.370683 8.84064 0.592428C8.43355 1.12906 8.46535 1.93041 8.9141 2.44149L9.06177 2.60969V3.2963V3.9829L5.92653 3.98347C2.58833 3.98408 2.56405 3.98553 2.11365 4.21578C1.82592 4.36289 1.44654 4.73372 1.29051 5.02042C1.04664 5.46852 1.03109 5.60905 1.03048 7.37028L1.02992 8.99633L0.838656 9.02198C0.573417 9.05753 0.307755 9.24729 0.151815 9.51258L0.0200647 9.73672L0.00395411 10.8266C-0.0132838 11.994 0.0214268 12.3072 0.196296 12.5625C0.327905 12.7546 0.629969 12.9492 0.85162 12.9846L1.02635 13.0126L1.03988 15.7429C1.05317 18.4242 1.05523 18.4776 1.1557 18.7227C1.38243 19.2758 1.83681 19.7063 2.40445 19.9058C2.6671 19.9981 2.79387 19.9996 10.0385 19.9996C18.2256 19.9996 17.6223 20.0237 18.1612 19.6754C18.4845 19.4664 18.7875 19.096 18.9406 18.7227C19.041 18.4776 19.0431 18.4243 19.0564 15.7371L19.0699 13.0011L19.1738 13.0001C19.4609 12.9972 19.8457 12.7013 19.9798 12.3803C20.0868 12.1241 20.087 9.83925 19.98 9.58322C19.8523 9.27749 19.5815 9.06542 19.219 8.98722L19.0664 8.95425V7.38681C19.0664 6.40514 19.0466 5.72633 19.0136 5.57044C18.8612 4.85265 18.2724 4.24161 17.5469 4.04843C17.3536 3.99695 16.6754 3.98389 14.1698 3.98347L11.0345 3.9829V3.2963V2.60969L11.1822 2.44149C11.4333 2.15554 11.5262 1.89368 11.527 1.47001C11.5276 1.15334 11.5072 1.05245 11.3971 0.828358C11.2525 0.533951 11.0029 0.283601 10.6961 0.125312C10.4688 0.00798133 9.8527 -0.0403507 9.59559 0.0388875ZM17.0467 12.0148V18.0269H10.0481H3.04962V12.0148V6.00261H10.0481H17.0467V12.0148ZM6.24071 8.03768C5.54603 8.23077 5.05237 9.04396 5.05237 9.99505C5.05237 10.6354 5.23668 11.1417 5.61841 11.5498C6.29679 12.275 7.28495 12.0797 7.76883 11.1248C8.30941 10.0581 7.97517 8.59375 7.08758 8.13998C6.8129 7.99954 6.50966 7.9629 6.24071 8.03768ZM13.3125 8.01767C12.7611 8.15938 12.318 8.66036 12.1345 9.3495C12.0512 9.66241 12.05 10.3241 12.1322 10.6291C12.2852 11.1968 12.614 11.6503 13.025 11.8605C13.9957 12.3571 15.0439 11.3886 15.0439 9.99505C15.0439 9.35471 14.8596 8.84842 14.4779 8.44035C14.1508 8.09066 13.6854 7.92185 13.3125 8.01767ZM6.0557 14.9973V16.0072H10.0481H14.0406V14.9973V13.9875H10.0481H6.0557V14.9973Z" fill="#FA7C41"/>
</svg>
