<svg width="16" height="13" viewBox="0 0 16 13" fill="none" xmlns="http://www.w3.org/2000/svg">
<path fill-rule="evenodd" clip-rule="evenodd" d="M9.11922 0.0528779C9.07309 0.0815029 9.01347 0.15494 8.98675 0.216097C8.96003 0.277253 8.19134 2.85806 7.27859 5.95125C5.99659 10.2957 5.62297 11.5994 5.63631 11.6817C5.65419 11.7919 5.72341 11.889 5.82156 11.9415C5.9255 11.9971 6.60697 12.1867 6.70259 12.1865C6.75444 12.1865 6.84147 12.1593 6.89594 12.126C6.97906 12.0753 7.00769 12.0238 7.07372 11.8058C7.11703 11.6629 7.87884 9.08553 8.76669 6.07828C10.0133 1.856 10.377 0.586284 10.3637 0.504096C10.3458 0.39394 10.2766 0.296815 10.1784 0.244315C10.0731 0.187909 9.39237 -0.00084093 9.29741 2.81977e-06C9.24556 0.00044032 9.16537 0.0242529 9.11922 0.0528779ZM4.26562 1.70028C4.21406 1.72363 3.23322 2.68328 2.08594 3.83288L0 5.92303V6.09291V6.26278L2.101 8.36532C3.58391 9.84932 4.23206 10.4778 4.30422 10.5016C4.50513 10.5679 4.57809 10.523 5.08844 10.0191C5.35191 9.75891 5.58747 9.50806 5.61188 9.46166C5.66506 9.36053 5.66884 9.23872 5.62175 9.14553C5.60275 9.108 4.91728 8.40578 4.09844 7.5851L2.60963 6.09291L4.09844 4.60072C4.91728 3.78003 5.60275 3.07782 5.62175 3.04028C5.66897 2.94688 5.66503 2.8251 5.6115 2.72416C5.54412 2.5971 4.65363 1.72582 4.55266 1.68819C4.43897 1.64582 4.38053 1.64828 4.26562 1.70028ZM11.4375 1.68997C11.3425 1.72719 10.4512 2.60591 10.3885 2.72416C10.335 2.8251 10.331 2.94688 10.3783 3.04028C10.3973 3.07782 11.0827 3.78003 11.9016 4.60072L13.3904 6.09291L11.9016 7.5851C11.0827 8.40578 10.3973 9.108 10.3783 9.14553C10.3312 9.23872 10.3349 9.36053 10.3881 9.46166C10.4125 9.50806 10.6481 9.75891 10.9116 10.0191C11.4219 10.523 11.4949 10.5679 11.6958 10.5016C11.7679 10.4778 12.4161 9.84932 13.899 8.36532L16 6.26278V6.09291V5.92303L13.9141 3.83285C12.7077 2.624 11.7857 1.72425 11.7276 1.69903C11.612 1.64891 11.5474 1.64691 11.4375 1.68997Z" fill="#FA7D42"/>
</svg>
