<svg width="17" height="16" viewBox="0 0 17 16" fill="none" xmlns="http://www.w3.org/2000/svg">
<path fill-rule="evenodd" clip-rule="evenodd" d="M10.9536 0.0355647C10.2485 0.159915 9.6047 0.437397 9.04536 0.858092C8.77085 1.06456 6.06576 3.7668 5.98543 3.9148C5.8877 4.0948 5.88742 4.54722 5.98493 4.72816C6.14194 5.01959 6.43537 5.19096 6.77733 5.19096C7.15686 5.19096 7.14309 5.20194 8.68482 3.66885C9.50941 2.84889 10.1512 2.23605 10.2578 2.16679C10.4864 2.01832 10.7234 1.91355 11.0269 1.82677C11.3678 1.7293 11.9785 1.7293 12.3194 1.82677C12.96 2.00994 13.4669 2.36916 13.8088 2.88246C13.978 3.13654 14.0436 3.27328 14.1464 3.58633C14.2255 3.82746 14.2337 3.8945 14.2341 4.30584C14.2346 4.71089 14.2256 4.78898 14.15 5.03542C13.9617 5.64898 13.8967 5.73 12.3258 7.3098C10.7927 8.85153 10.8037 8.83776 10.8037 9.21729C10.8037 9.55925 10.975 9.85268 11.2665 10.0097C11.4474 10.1072 11.8998 10.1069 12.0798 10.0092C12.2278 9.92886 14.9301 7.22377 15.1365 6.94926C15.5675 6.37628 15.835 5.7489 15.9636 5.00971C16.0331 4.61029 16.0069 3.73824 15.9144 3.36734C15.6933 2.48184 15.3491 1.86297 14.74 1.25573C14.1187 0.636326 13.4242 0.256705 12.5647 0.0664725C12.2388 -0.00563516 11.2905 -0.0238419 10.9536 0.0355647ZM10.3098 4.68455C10.231 4.69625 10.1044 4.73683 10.0283 4.77471C9.93054 4.82342 9.14953 5.58363 7.3652 7.36677C4.5587 10.1714 4.67745 10.0352 4.67745 10.4497C4.67745 10.9511 5.0429 11.3172 5.54349 11.3172C5.95956 11.3172 5.82203 11.437 8.62954 8.62942C11.4371 5.82191 11.3173 5.95943 11.3173 5.54337C11.3173 4.99166 10.8611 4.60278 10.3098 4.68455ZM4.05551 5.92868C3.86321 5.99166 3.70992 6.13299 2.34932 7.50201C0.812196 9.04864 0.714468 9.16311 0.416684 9.76593C0.268996 10.0649 0.157253 10.3904 0.0627149 10.7971C-0.020905 11.1568 -0.020905 12.1893 0.0627149 12.5489C0.27666 13.4692 0.627188 14.1131 1.25479 14.7388C1.87632 15.3584 2.57397 15.7397 3.43003 15.9276C3.78616 16.0058 4.59649 16.0248 4.97967 15.964C5.72018 15.8465 6.36599 15.5752 6.94939 15.1364C7.22389 14.9299 9.92898 12.2277 10.0093 12.0797C10.107 11.8997 10.1073 11.4473 10.0098 11.2663C9.8528 10.9749 9.55937 10.8035 9.21741 10.8035C8.83782 10.8035 8.85171 10.7925 7.30992 12.326C6.36267 13.2682 5.85197 13.7533 5.7137 13.8424C5.46628 14.0017 5.12286 14.1377 4.79998 14.2042C3.83074 14.4039 2.75113 13.9574 2.19729 13.1277C2.01622 12.8564 1.95215 12.7243 1.84836 12.4082C1.76921 12.167 1.76101 12.1 1.76061 11.6887C1.76017 11.2836 1.76918 11.2055 1.84479 10.9591C2.03305 10.3455 2.09803 10.2645 3.66897 8.6847C5.20207 7.14297 5.19109 7.15673 5.19109 6.77721C5.19109 6.43431 5.01703 6.13722 4.72828 5.98721C4.59217 5.91651 4.19747 5.88216 4.05551 5.92868Z" fill="#FA7D41"/>
</svg>
