<svg width="19" height="16" viewBox="0 0 19 16" fill="none" xmlns="http://www.w3.org/2000/svg">
<path fill-rule="evenodd" clip-rule="evenodd" d="M1.1658 0.0351792C0.742143 0.118245 0.324438 0.454726 0.126638 0.87236L0.0129659 1.11231L0.00326009 3.7783C-0.00524137 6.10136 0.000603384 6.46859 0.0484241 6.6332C0.20641 7.17662 0.703391 7.60194 1.27735 7.68493C1.40019 7.70268 2.34952 7.71756 3.38698 7.71795C4.42444 7.71834 5.27346 7.72266 5.2737 7.72751C5.27395 7.73236 5.53562 9.16142 5.8552 10.9032C6.29986 13.3264 6.45229 14.0916 6.5045 14.1621C6.69479 14.419 7.05235 14.4962 7.29595 14.3328C7.36216 14.2884 7.65131 13.9497 7.93849 13.5801C8.22569 13.2105 8.47567 12.9081 8.49402 12.9081C8.51233 12.9081 8.99933 13.565 9.57622 14.3679C10.1531 15.1709 10.6737 15.8624 10.7331 15.9047C10.8768 16.007 11.1025 16.0298 11.2717 15.9591C11.42 15.8972 12.8398 14.8925 13.0226 14.72C13.1562 14.5942 13.224 14.3863 13.1903 14.2065C13.1623 14.0572 13.1886 14.0962 12.0037 12.4476C11.4856 11.7267 11.0508 11.119 11.0374 11.0971C11.0212 11.0707 11.294 10.9585 11.8498 10.763C12.3628 10.5826 12.7275 10.4342 12.7926 10.3794C13.0024 10.2029 13.0535 9.90396 12.9157 9.65858C12.8219 9.49153 12.8471 9.50694 10.9858 8.48024L9.63718 7.73637L13.2911 7.71844C17.2523 7.69903 16.9831 7.7126 17.375 7.51267C17.5523 7.4222 17.7871 7.195 17.9202 6.98512C18.1386 6.64078 18.1344 6.70691 18.1237 3.7783L18.114 1.11231L18.0003 0.87236C17.7959 0.44077 17.3848 0.117785 16.9314 0.0324162C16.6923 -0.0125707 1.39576 -0.00987856 1.1658 0.0351792ZM16.8104 1.23481C16.8893 1.28291 16.9353 1.34699 16.9619 1.44575C16.9879 1.54228 16.997 2.33805 16.9903 3.93583C16.9795 6.51492 16.9907 6.38846 16.7629 6.49657C16.6652 6.54294 16.0685 6.54971 12.0725 6.54971H7.49404L6.72901 6.12874C5.67664 5.54969 5.75226 5.58298 5.53165 5.60126C5.19627 5.6291 5.00562 5.84954 5.0137 6.20029C5.01625 6.31074 5.02893 6.43451 5.0419 6.47539L5.06549 6.54971H3.27076C1.74896 6.54971 1.45899 6.54163 1.36406 6.49657C1.13622 6.38846 1.14745 6.51492 1.13665 3.93583C1.12999 2.33805 1.13905 1.54228 1.16502 1.44575C1.19162 1.34699 1.23764 1.28291 1.31656 1.23481C1.428 1.16686 1.55658 1.1657 9.06348 1.1657C16.5704 1.1657 16.699 1.16686 16.8104 1.23481ZM1.72233 2.57368C1.61556 2.63985 1.51843 2.81374 1.51843 2.93867C1.51843 3.06521 2.21743 5.1345 2.31495 5.29677C2.53737 5.66665 3.08313 5.64306 3.26803 5.25553C3.30487 5.17828 3.40108 4.88884 3.48177 4.61229L3.62857 4.1095L3.71315 4.41747C3.85849 4.94668 3.98665 5.30945 4.05562 5.38688C4.29108 5.65117 4.77088 5.59807 4.94257 5.28869C5.01505 5.15805 5.61103 3.44593 5.69676 3.12202C5.7862 2.78416 5.60034 2.51141 5.28086 2.51165C5.17774 2.51172 5.07045 2.53822 5.00042 2.58094C4.88274 2.65267 4.82422 2.80527 4.56068 3.7274L4.48147 4.00458L4.31024 3.41355C4.21605 3.08851 4.10603 2.77623 4.06572 2.71962C3.86303 2.435 3.35896 2.44152 3.16927 2.7312C3.13998 2.77598 3.03839 3.08054 2.94349 3.40803L2.77102 4.00345L2.61909 3.47887C2.43833 2.85458 2.34874 2.63273 2.24942 2.56316C2.14853 2.49245 1.84344 2.49855 1.72233 2.57368ZM6.36685 2.57116C6.24082 2.64938 6.15881 2.79776 6.15881 2.9476C6.15881 3.09542 6.79809 5.00279 6.93276 5.25677C7.04318 5.46502 7.19773 5.5578 7.43403 5.55769C7.74083 5.55755 7.8851 5.39882 8.02959 4.90255C8.0693 4.76617 8.13675 4.53504 8.17943 4.38892L8.25711 4.12325L8.42286 4.67641C8.514 4.98062 8.61662 5.27229 8.65084 5.32454C8.84226 5.61667 9.26716 5.63845 9.51876 5.3691C9.59726 5.28508 10.1959 3.63424 10.3229 3.15174C10.4226 2.77297 10.2448 2.51151 9.88744 2.51151C9.7403 2.51151 9.68968 2.52915 9.60208 2.61098C9.49358 2.71236 9.48816 2.72692 9.22522 3.62304L9.11211 4.00841L8.96114 3.48135C8.76872 2.80967 8.7078 2.67286 8.56111 2.58342C8.38492 2.47602 8.09587 2.48463 7.9421 2.60191C7.78259 2.72355 7.75004 2.79613 7.57314 3.42414C7.48936 3.72152 7.41065 3.95265 7.39825 3.93777C7.38582 3.9229 7.3154 3.70363 7.24172 3.4505C7.04002 2.75738 6.98398 2.62501 6.86627 2.56415C6.7328 2.49511 6.48374 2.49862 6.36685 2.57116ZM10.9243 2.63666C10.7289 2.83216 10.7423 2.91951 11.1545 4.13522C11.3499 4.71158 11.5381 5.23152 11.5726 5.29067C11.6072 5.34983 11.6904 5.43555 11.7575 5.48118C11.8586 5.54986 11.9139 5.56173 12.0789 5.55022C12.4456 5.52457 12.5102 5.43555 12.7377 4.6429C12.8112 4.38661 12.88 4.17681 12.8904 4.17666C12.9008 4.17649 12.9778 4.41148 13.0614 4.69887C13.1526 5.01215 13.2486 5.26747 13.3011 5.33651C13.5527 5.66725 14.0206 5.62613 14.2234 5.25539C14.2657 5.17824 14.453 4.66295 14.6397 4.11032C15.037 2.93403 15.0515 2.83428 14.8539 2.63666C14.7405 2.5232 14.7102 2.51151 14.5304 2.51151C14.2177 2.51151 14.1529 2.60333 13.936 3.35344C13.8396 3.68673 13.748 3.95148 13.7323 3.94181C13.7166 3.93214 13.7038 3.90526 13.7037 3.88205C13.7036 3.85885 13.6329 3.60452 13.5465 3.31692C13.3368 2.61874 13.2511 2.51403 12.8891 2.51403C12.5408 2.51403 12.4472 2.61774 12.271 3.19889C12.2018 3.42723 12.1273 3.68478 12.1056 3.77125C12.0838 3.85768 12.0545 3.92842 12.0406 3.92842C12.0266 3.92842 11.9474 3.69598 11.8646 3.41192C11.7819 3.12783 11.692 2.84236 11.6649 2.77757C11.5874 2.59203 11.4583 2.51151 11.2384 2.51151C11.0694 2.51151 11.0363 2.52469 10.9243 2.63666ZM15.599 4.5452C15.2939 4.68077 15.1898 5.06797 15.3802 5.35854C15.5011 5.54306 15.8316 5.61051 16.0672 5.49871C16.2436 5.41497 16.3249 5.26432 16.325 5.0204C16.3251 4.85356 16.3089 4.8001 16.2294 4.70563C16.0648 4.51006 15.8188 4.44747 15.599 4.5452ZM8.59476 8.50185C9.79744 9.16638 10.8248 9.73676 10.8777 9.76928L10.974 9.82847L10.4704 10.0009C9.79953 10.2305 9.65001 10.3122 9.56 10.4981C9.47682 10.6699 9.46921 10.8274 9.53633 10.9875C9.56258 11.0502 10.0817 11.7926 10.6898 12.6372C11.2979 13.4818 11.7905 14.1771 11.7844 14.1823C11.7783 14.1875 11.6468 14.2819 11.4922 14.3922C11.2649 14.5542 11.2025 14.5839 11.1666 14.5473C11.1421 14.5225 10.6303 13.8167 10.0291 12.9789C9.05926 11.6274 8.91846 11.4468 8.77974 11.3761C8.41319 11.1892 8.23643 11.2828 7.73512 11.9291C7.42992 12.3225 7.34023 12.4178 7.32121 12.3686C7.30785 12.3341 7.0961 11.1981 6.85062 9.84402C6.60514 8.48999 6.39738 7.36223 6.38892 7.33786C6.38049 7.31353 6.38134 7.29358 6.39079 7.29358C6.40029 7.29358 7.39205 7.83729 8.59476 8.50185Z" fill="#FA7D41"/>
</svg>
