<svg width="17" height="16" viewBox="0 0 17 16" fill="none" xmlns="http://www.w3.org/2000/svg">
<path fill-rule="evenodd" clip-rule="evenodd" d="M7.19527 0.0185725C6.1343 0.11742 4.95176 0.497321 4.00362 1.04397C2.14179 2.1174 0.757611 3.92294 0.231113 5.96491C0.0332933 6.73212 0 7.02619 0 8.00681C0 8.78329 0.00885528 8.94929 0.0683702 9.29067C0.362816 10.9792 1.06761 12.377 2.23513 13.5883C3.43503 14.8331 4.94512 15.624 6.70933 15.9316C7.05071 15.9911 7.21671 16 7.99319 16C8.97381 16 9.26788 15.9667 10.0351 15.7689C12.7947 15.0573 15.0436 12.8086 15.7551 10.0495C15.9588 9.25932 15.9807 9.04567 15.9956 7.70173L16.0092 6.47357H12.0012H7.99319V8.00681V9.54006H10.34C11.6307 9.54006 12.6868 9.5436 12.6868 9.54788C12.6868 9.55217 12.6598 9.62611 12.6269 9.71216C12.3616 10.4049 11.981 10.992 11.4632 11.5069C10.1131 12.8495 8.12426 13.2941 6.33478 12.6534C4.95517 12.1595 3.84053 11.0448 3.34657 9.66522C3.14337 9.09764 3.06865 8.65187 3.06865 8.00681C3.06865 7.21491 3.19738 6.62836 3.53 5.90426C3.98206 4.9202 4.90657 3.99569 5.89064 3.54363C7.16085 2.96012 8.51684 2.91347 9.79278 3.40939C10.1101 3.53274 10.5524 3.76942 10.8094 3.95341C10.8868 4.00886 10.9666 4.06359 10.9866 4.07504C11.0225 4.09557 12.8745 1.72605 12.8745 1.65961C12.8745 1.64231 12.7443 1.53805 12.5851 1.42788C11.4803 0.663412 10.3276 0.221305 8.98016 0.0452635C8.63496 0.000173597 7.5646 -0.0158473 7.19527 0.0185725Z" fill="#FA7D41"/>
</svg>
